<?xml version="1.0" encoding="utf-8"?>
<!-- Generator: Adobe Illustrator 28.3.0, SVG Export Plug-In . SVG Version: 6.00 Build 0)  -->
<svg version="1.1" id="レイヤー_1" xmlns="http://www.w3.org/2000/svg" xmlns:xlink="http://www.w3.org/1999/xlink" x="0px"
	 y="0px" viewBox="0 0 249.9 35.9" style="enable-background:new 0 0 249.9 35.9;" xml:space="preserve">
<style type="text/css">
	.st0{fill:#FFFFFF;}
	.st1{fill-rule:evenodd;clip-rule:evenodd;fill:#FFFFFF;}
</style>
<g>
	<path class="st0" d="M194.6,14c-0.1,0.1-0.1,0.2,0,0.6c0.2,0.4,0.7,2.6,1,2.9s0.8,1.4,1,1.3s0.9,0,0.9,0s3.4,0,3.7,0.1
		c0.4,0.1,0.5-0.3,0.8,0.2s0.4,0.4,0.3,1.1c-0.1,0.6-1.5,2.7-2,3c-0.5,0.4-1.3,1.4-1.9,1.6c-0.6,0.1-2.1,0.2-2.7,0.1
		c-0.5-0.1-1.1,0.1-1.1,0.3c0,0.2-0.1,0.7-0.1,1.3c0,0.6-0.1,1.2,0.1,1.5c0.2,0.2,0.5,1.2,1,1.2c0.6,0,3,0.2,3.9,0.3
		c0.9,0.2,1.5,0,1.6,0.1s-0.1,0.2,1,0.2s1.5,0.1,1.8,0.3c0.3,0.2,1.1-0.2,1.5-0.1s1.6,0,3.2-0.1c1.7-0.1,1.8,0.1,2.5-0.1
		s1.3-0.4,1.9-0.4c0.6,0,1.2-0.5,1.5-0.8c0.3-0.4,0.6-1.2,0.4-1.4c-0.1-0.3-0.2-0.4-0.3-0.6c-0.1-0.1,0-0.3-0.1-0.4s-0.9-0.9-1.3-1
		c-0.4-0.1-0.7-0.4-0.8-0.4s-0.5-0.1-0.8-0.2s-1.4-0.6-1.9-0.6s-0.6-0.1-1.3,0.2c-0.7,0.3-0.7,0.3-1.1,0.4c-0.4,0-1.3,0.4-1.5,0.3
		s0.2-0.9,0.3-1.1c0-0.2,0.2-1,0-1.3s-0.3-1.2-0.5-1.5c-0.2-0.2-0.2-0.3-0.3-0.6c-0.1-0.3-0.5-1-0.4-1.1c0-0.1,0.1-0.1,0.6,0
		s5.1-0.3,5.2-0.3c0.2,0,1.4,0,1.7-0.1c0.5-0.1,0.5-0.1,0.8-0.2s0.4-0.2,0.5-0.3c0-0.1,0.2-0.8,0.2-0.9c0-0.2,0-0.3-0.1-0.3
		c-0.2,0-0.4-0.3-0.4-0.4s0.2-0.4,0-0.5s-0.3-0.1-0.4-0.4c-0.2-0.3-0.3-0.5-0.5-0.6c-0.1-0.1-0.6-0.5-0.8-0.5s-0.7-0.5-1-0.5
		c-0.2-0.1-0.5-0.4-1-0.5c-0.4-0.1-3.9,0.6-4.5,0.6c-0.5,0-4,0.1-4.4,0.1c-0.5,0-1.4,0.1-2.1,0c-0.7,0-1.9,0-2.5,0s-0.8,0.1-1,0
		C194.9,14,194.7,13.9,194.6,14z"/>
	<g>
		<path class="st0" d="M156.7,20.4c-0.2-0.4-0.4-1-0.5-1c-0.1-0.1-0.5-0.4-0.6-0.7c-0.1-0.2-1.8-1.8-2.8-2.4s-2.9-1.3-3.7-1.4
			c-0.8-0.1-1-0.3-1.7-0.3s-2.9,0.1-3.7,0.3c-0.8,0.1-2.6,0.5-2.8,0.5s-0.5-0.3-0.5-0.3h-0.1c0,0,0.2,0.6,0.3,0.9
			c0.2,0.3,0.2,0.3,0.2,0.6c0,0.2-0.2,0.1-0.2,1s-0.1,2.6,0.1,3.4c0.2,0.8,0.4,1.8,0.6,2.3c0.2,0.5,0.5,1.3,0.5,1.8s0.1,1.1,0.1,1.4
			c-0.1,0.4-0.3,0.8-0.3,1.3s-0.1,1.7-0.1,2s-0.3,0.6-0.3,1c0,0.3,0.1,0.7,0.1,1.2c0,0.4-0.1,1,0,1.1s0.2,0.4,0.2,0.5
			s0.1,0.5,0.1,0.6c0.1,0.1,0.5,0.2,0.6,0.3c0,0.1,0.5,0.5,0.6,0.6s0.5-0.1,0.6,0c0,0.1,0,0.3,0.1,0.2c0.2-0.1,0.7-0.7,0.8-1
			s0.4-0.8,0.4-0.9c0-0.1,0-0.4,0.2-0.8c0.2-0.5,0.2-0.7,0.3-0.7s0.2,0.2,0.5-0.2c0.3-0.3,0.5-1,0.5-1.2s0.3-0.7,0.3-0.8
			c0-0.1,0.1-0.6,0.3-0.6c0.3,0,0.8,0.3,1,0.4s0.9,0.8,1.1,1c0.2,0.2,0.4,0.4,0.8,0.4c0.4,0,0.7,0.2,1,0.2s0.5,0.1,0.9,0
			s1.9-0.4,2.6-0.8c0.7-0.4,0.7-0.2,0.9-0.7c0.2-0.4,0.3-2.2,0.2-2.8c-0.1-0.6-0.3-1.6-0.2-1.9c0.1-0.2,0-0.3,0.3-0.4
			s0.3-0.4,0.5-0.5s1-0.2,1.2-0.6C157.3,22.9,156.9,20.8,156.7,20.4z M149.5,23.5c-0.1,0.1-0.6,0.5-0.7,0.6c-0.1,0.1-0.1,0-0.2,0
			c-0.1,0-0.4,0.3-0.6,0.4c-0.2,0.1-0.7,0.2-1,0.3c-0.3,0.1-0.8,0.4-0.8,0.5c-0.1,0.1,0,0.2-0.1,0.2s-0.3-0.1-0.4-0.3
			c-0.1-0.2-0.2-0.3-0.2-0.4c0.1-0.1,0.2-0.3,0.1-0.5c-0.1-0.1-0.2-0.4-0.2-0.6c0-0.1-0.2-0.8-0.4-1.1c-0.1-0.3-0.2-0.6-0.3-0.8
			c0,0-0.1-0.3,0-0.6c0.1-0.3,0-0.8,0-0.9c0-0.2,0.1-0.2,0.1-0.3c0-0.1,0-0.7,0-0.8c0-0.1-0.2-0.1-0.2-0.2s0-0.6,0.1-0.6
			c0.2-0.1,0.4,0,0.5,0c0.1,0.1,0.5,0.1,0.6,0.2c0.1,0,0.4,0.1,0.7,0.2s0.8,0.2,1,0.2s0.4,0,0.6,0.2c0.2,0.2,0.2,0.7,0.3,1.3
			c0.1,0.5,0.4,1.5,0.5,1.7s0.4,1,0.4,1.1C149.5,23.3,149.6,23.4,149.5,23.5z"/>
		<g>
			<path class="st0" d="M131.9,1.6c0,0-0.2,0-0.3,0.1s-0.3,0.1-0.1,0.3c0.1,0.2,0.3,0.5,0.4,0.6c0.1,0.1,0.2,0.4,0.4,0.5
				c0.3,0.1,1.1,0.5,1.5,0.6s0.8,0.4,0.9,0.5c0.2,0,0.9,0.3,0.9,0.5s-0.7,0.4-0.8,0.5s-0.4,0.1-0.6,0.3c-0.2,0.1-2.6,1.2-2.9,1.4
				c-0.3,0.2-4.8,2.4-5,2.5c-0.2,0.1-0.7,0.4-1.1,0.6c-0.3,0.2-2.1,1.8-2.3,2c-0.2,0.2-0.8,0.8-1,1.1s-0.4,0.8-0.6,1.1
				c-0.2,0.2-0.4,0.9-0.5,0.9c-0.1,0.1-0.2,0.1-0.3,0.1c-0.1,0-0.3-0.1-0.3,0s0.3,0.7,0.5,0.9c0.2,0.2,0.4,0.4,0.5,0.6
				c0.1,0.1,0.3,0.8,0.7,1c0.4,0.2,0.5,0.3,0.6,0.4s0.1,0.6,0.1,0.8c0.1,0.2,0.7,2.1,1,2.8c0.2,0.7,0.9,2.5,1.2,3.1
				c0.3,0.6,1,2.1,1.8,2.9s1.9,1.9,2.3,2.2c0.4,0.3,0.7,0.5,1,0.6c0.2,0,0.5,0.1,0.6,0.2s0.9,0.6,1.3,0.7c0.5,0.1,0.4,0,0.5-0.1
				s0.6,0,0.7-0.1c0.1-0.1,0-0.4,0.2-0.5s0.7-0.4,0.8-0.5s0.3-0.2,0.3-0.2s0.6-0.2,0.8-0.3c0.2-0.1,1.8-1,2.5-1.2s1.7-0.4,2.2-0.4
				c0.4,0,0.6,0.2,0.8,0.1c0.2,0,0.7,0.1,0.8,0s0.4-1.1,0.3-1.2c-0.1-0.1-0.3-0.3-0.5-0.4s-0.8-0.4-1-0.6s-0.6-0.4-0.8-0.3
				c-0.3,0-0.6-0.3-0.9-0.4c-0.3-0.1-0.9-0.3-1.5-0.3s-1.5,0-2,0.1s-1.1,0.3-1.5,0.5c-0.5,0.2-1.1,0.5-1.3,0.4
				c-0.2,0-0.5-0.3-0.7-0.3s-0.4-0.4-0.5-0.5c-0.1-0.2-0.5-1-0.7-1.2c-0.1-0.2-0.5-1.1-0.5-1.2c0.1-0.1,0.4-0.2,0.7-0.3
				c0.3-0.1,1.8-0.3,2.2-0.5c0.5-0.1,1.5-0.2,2-0.4c0.5-0.2,1.9-0.5,2.4-0.8s1.3-0.1,1.4-0.1c0.1,0,0.1,0.2,0.3,0.2s0.8,0.1,1,0
				c0.2,0,0.4-0.2,0.3-0.3c0-0.1-0.1-0.6-0.5-0.9s-0.7-0.5-1.2-0.6c-0.4-0.1-0.8-0.3-1.4-0.4c-0.6,0-1.7,0-2.4,0.1s-1.7,0.3-2.1,0.4
				c-0.4,0.1-1.7,0.5-2.3,0.6c-0.5,0.2-0.8,0.4-0.9,0.5c-0.1,0.1-0.3,0-0.4-0.2c-0.1-0.2-0.9-1.2-1-1.3c-0.1-0.1-0.5-0.6-0.6-0.7
				s-0.4-0.2-0.5-0.3c-0.2-0.1-0.5-0.5-0.6-0.6s0-0.2-0.3-0.3c-0.3-0.1-1-0.5-1.3-0.6s-0.3-0.2-0.5-0.3c-0.2-0.2-0.6-0.5-0.8-0.6
				c-0.1-0.1-0.3-0.1-0.3-0.1c0-0.1,0-0.2,0.5-0.2c0.6,0,1,0.1,1.2,0.2c0.3,0.1,1,0.2,1.3,0.2s1.3,0.1,1.5,0.1s0.4,0.2,0.6,0.2
				c0.2,0,1.1,0.1,1.3-0.1c0.2-0.2,0.5,0,0.6-0.1c0.1,0,0.3-0.2,0.5-0.1c0.2,0.1,0.7,0.4,1.1,0.5c0.4,0.1,1.4,0.1,1.5,0.1
				c0.1,0.1,0.1,0.3,0.5,0.3c0.3,0,0.7-0.1,0.7-0.1c0.1,0,0.3,0,0.3,0c0.1,0,0.9,0,1.1-0.1c0.2-0.1,0.9-0.4,1-0.4s-0.1,0.2,0.2,0.1
				s0.8-0.4,0.9-0.4c0.2,0,0.8-0.4,0.9-0.5c0.1-0.1,0.4-0.1,0.6-0.2c0.2-0.1,0.4-0.4,0.5-0.4s0.8,0,1.1-0.2c0.2-0.1,0.5-0.4,0.7-0.5
				s0.8-0.8,1.2-1.5c0.3-0.7,0.3-1.3,0.3-1.6c-0.1-0.2,0.2-0.3,0.2-0.4c0-0.2-0.1-0.3,0-0.4c0.1-0.1,0.2-0.1,0.3-0.5
				c0-0.4,0.1-1.3,0-1.6c0-0.3,0-0.7-0.4-1.3s-0.6-0.6-0.7-0.8c-0.1-0.2-0.1-0.4-0.3-0.7c-0.3-0.2-1.5-1.4-1.7-1.5s-0.2-0.1-0.5-0.2
				c-0.3-0.1-0.9-0.7-1.2-0.8c-0.4-0.2-0.6-0.2-0.9-0.3c-0.2-0.1-0.7-0.4-1.3-0.5s-1,0-1.4-0.1C135.1,1.7,132.6,1.5,131.9,1.6z"/>
		</g>
	</g>
	<g>
		<path class="st0" d="M222.2,2.6c0,0-0.1,0.3,0.1,0.5c0.2,0.2,0,0.3,0.1,0.4c0.1,0.1,0.6,0.9,0.8,1.1c0.1,0.2,0.3,0.7,0.5,0.8
			c0.2,0.1,0.6,0.7,0.9,0.9c0.3,0.1,0.7,0.6,1,0.6c0.3,0.1,0.7,0.1,0.9,0.2c0.2,0,0.7,0.2,0.9,0.2c0.3,0,1,0.2,1.4,0.3
			c0.4,0,0.7,0.1,1.2,0.1s3.3,0,3.7,0.1c0.4,0,1.2,0.1,1.6,0c0.3,0,1.5,0,1.9-0.1c0.5-0.1,2.1-0.3,2.5-0.4s0.2-0.1,0.4-0.1
			s0.3,0,0.5-0.1s0.4-0.1,0.6-0.2c0.2,0,0.6-0.1,0.7-0.2c0.2-0.1,0.8-0.5,0.8-0.6s0.1-0.1,0.3-0.2c0.2,0,0.4,0,0.5-0.2
			c0.1-0.1,0.3-0.3,0.4-0.4c0.1-0.1,0.4-0.5,0.5-0.7c0-0.2,0.3-0.4,0.2-0.5s-0.3-0.3-0.3-0.4c0-0.1-0.1-0.3-0.2-0.5
			c-0.1-0.1-0.1-0.3-0.3-0.4c-0.2-0.1-0.2-0.3-0.5-0.4c-0.2-0.1-0.6-0.2-0.7-0.3c-0.1-0.1-0.3-0.3-0.5-0.4s-0.4-0.1-0.7-0.3
			c-0.3-0.1-0.5-0.3-0.6-0.3s-0.5,0-0.9-0.1s-0.6-0.3-0.9-0.3c-0.3,0-0.3,0.1-0.4,0.2C238.5,1,238.3,1,238.1,1s-0.6,0.3-0.9,0.4
			c-0.3,0.1-0.8,0.4-1.4,0.5c-0.6,0.2-0.9,0.2-1.4,0.2s-2.7,0-3.2,0s-2.4,0-2.9,0.1c-0.5,0-0.7,0-1.4,0.1s-1.5,0.2-2,0.2
			s-0.6,0.1-1.1,0.1s-1.3-0.2-1.5-0.2C222.4,2.7,222.3,2.5,222.2,2.6z"/>
		<path class="st1" d="M249.8,21.6c-0.1-0.1-0.6-0.8-0.7-0.9c-0.1-0.1-0.7-0.5-0.9-0.6c-0.2-0.2-0.8-0.7-1.3-0.8c-0.2,0-0.4,0-0.7,0
			c-0.2,0-0.3-0.1-0.7-0.1c-0.3,0-0.8,0.2-1,0.2s-0.5,0.3-0.7,0.4c-0.2,0-0.2,0.2-0.4,0.3c-0.2,0.1-0.7,0.2-1.1,0.3
			c-0.4,0-0.3,0.1-0.4,0.2c0,0-0.5,0-0.8,0s-0.8,0.1-1.3,0.2c-0.5,0-1.2,0.2-1.4,0.2s-0.2,0-0.2-0.2s0.1-0.6,0-0.8
			c-0.1-0.2-0.1-0.4-0.1-0.6c0-0.1-0.1-0.3,0.4-0.4c0.4-0.1,1.2,0,1.6,0c0.4,0,1.7,0,1.9,0c0.3-0.1,0.5-0.2,0.8-0.3
			c0.2-0.1,0.3-0.2,0.5-0.2c0.2-0.1,0.5-0.1,0.7-0.2s0.7-0.1,1-0.2s0.3-0.1,0.4-0.1c0.1,0,0.5-0.2,0.9-0.4c0.3-0.1,0.6-0.5,0.9-0.6
			c0.3-0.1,0.7-0.8,0.8-0.9s0.1-0.1,0.3-0.1s0.3-0.4,0.5-0.5s0.2-0.6,0.3-0.7c0.1-0.1,0-0.5,0.1-0.6c0-0.1,0.1-0.2,0.1-0.4
			s-0.2-0.3-0.2-0.5s-0.2-0.7-0.2-0.8c-0.1-0.2-0.1-0.2-0.3-0.5c-0.3-0.3-0.5-0.7-0.6-0.8s-0.4-0.4-0.6-0.6
			c-0.2-0.2-0.4-0.3-0.5-0.4c-0.1-0.1-0.4-0.4-0.5-0.5s-0.2-0.1-0.5-0.2c-0.3-0.1-0.4-0.3-0.6-0.4c-0.2-0.1-0.4-0.3-0.6-0.5
			c-0.2-0.1-0.9-0.3-1.2-0.3c-0.3-0.1-1.5-0.1-2-0.2c-0.5,0-4,0.4-4.9,0.6c-0.9,0.2-4.4,0.3-5.7,0.4c-1.4,0.1-3.7-0.1-4.4,0
			s-2.8,0-3.3-0.1c-0.6-0.2-0.6-0.1-0.9-0.1c-0.2-0.1-0.3-0.1-0.3,0c0,0,0.2,0.6,0.3,0.7c0.1,0.2,0.6,0.6,0.7,0.9
			c0.1,0.3,0.8,4.4,0.8,4.5c0,0.1-0.1,0.5-0.2,0.8c-0.1,0.3-0.1,1.8-0.3,2s-0.1,2-2.4,5.6c-0.3,0.5-0.8,1.8-2.5,3.9
			c-0.2,0.2-1.1,0.9-1.5,1.2c-0.4,0.2-1.1,0.7-1.4,1c-0.3,0.2,0,0.8,0,0.9s0.3,2.4,0.2,2.7s0.2,0.3,0.3,0.5c0.1,0.1,0.2,0.6,0.3,0.9
			c0,0.3,0.3,0.2,0.6,0.2s0.6,0.3,1.1,0.3s1.1-0.5,1.6-0.8s0.6-0.1,0.9-0.2c0.3,0,0.6-0.4,1.2-0.8c0.6-0.4,0.7-0.7,1.1-1
			c0.4-0.3,0.4-0.4,0.8-0.4c0.4-0.1,0.2-0.4,0.7-0.8c0.6-0.4,0.6-0.3,0.7,0c0.1,0.2,3,1.3,3.2,1.4s0.7,0.2,1,0.2s0.1-0.1,0.9-0.1
			c0.8,0,1.2-0.1,1.7-0.2c0.5-0.1,0.7-0.2,0.9-0.3c0.2-0.1,0.8,0,1.1,0s0.9-0.2,1.1-0.4c0.2-0.1,0.2-0.1,0.4-0.2
			c0.1-0.1,0.8-0.8,0.9-0.9c0.1-0.1,0.1-0.3,0.2-0.4c0-0.1,0.1-0.2,0.3-0.3c0.1-0.1,0.1-0.1,0.4-0.2l0.2-0.7c0.1,0,0.2,0,0.4,0
			s1.2,0,1.4-0.1c0.6-0.1,1.1,0.1,1.7,0c0.5,0,0.9,0,1.4,0c0.2,0,0.3,0,0.5,0.1s0.3,0.3,0.2,0.5c-0.1,0.1-0.2,0.2-0.3,0.3
			c-0.4,0.3-0.9,0.6-1.3,0.9c-0.3,0.2-0.7,0.3-1,0.4c-0.6,0-1.3,0.1-1.9,0.1c-0.5,0-1.4,0-1.5,0.2s0.9,1.4,1.4,2.1l0,0
			c0.4,0.3,0.8,0.5,1,1l0,0c0.5,0.3,0.9,0.7,1.5,0.7c0.3,0,0.6,0.1,0.9,0.4c0.1,0.1,0.2,0.1,0.3,0.2c0.6,0.3,1.2,0.5,1.9,0.4
			c0.3,0,0.5,0,0.8-0.1c0.7-0.2,1.4-0.1,2-0.7c0.1-0.1,0.2-0.1,0.2-0.1c0.6-0.3,1.2-0.6,1.6-1.2c0.3-0.2,0.4-0.5,0.7-0.8
			c0.4-0.4,0.8-0.9,0.6-1.5v-0.1c0.1-0.2,0-0.4-0.1-0.6c-0.1-0.3-0.3-0.6-0.5-0.9c-0.4-0.9-0.9-1.7-1.6-2.3
			c-0.2-0.2-0.4-0.5-0.4-0.8c-0.1-0.5-0.4-0.7-0.8-0.8c-0.5-0.1-1-0.3-1.5-0.5c-0.2-0.1-0.4-0.1-0.6-0.1c-0.7-0.1-1.3,0.3-1.9,0.4
			c-0.4,0.1-1.8,0.4-2.2,0.4c-0.3,0-1.6,0.1-2.2,0.1c0-0.1,0-0.2,0-0.3c-0.1-0.1,0.2-0.4,0.3-0.6s0.2-0.3,0.4-0.2
			c0.2,0,1.2-0.1,1.5-0.2s1-0.1,1.7-0.2s1.7-0.3,2.1-0.3c0.3-0.1,0.2,0,0.4,0s2-0.3,2.2-0.4c0.3-0.1,0-0.1,0.4-0.2s0.8-0.2,1.1-0.2
			s1-0.2,1.3-0.3c0.3-0.1,0.3-0.3,0.5-0.5s0.3-0.1,0.4-0.2c0.1-0.1,0.2-0.5,0.2-0.6C249.9,21.8,249.9,21.7,249.8,21.6z M232,25.2
			c-0.1,0.3-0.9,1.5-1.5,1.8s-1.9,0.5-2.2,0.5s-1.5,0.4-1.6,0.3c0-0.2,0.5-1.1,0.8-1.2s0.6-0.4,0.8-0.6c0.1-0.2,0.3-0.4,0.5-0.6
			c0.2-0.1,0.3-0.7,0.4-0.8c0.1-0.1,0.5-0.8,0.5-0.8c0.1,0,0.9,0.5,1.1,0.5c0.4-0.1,1.1,0.2,1.1,0.3C232.2,24.8,232.2,24.9,232,25.2
			z M233.2,20.5c-0.3,0.3-0.6,0.5-1,0.6s-1.6,0.2-1.5,0c0-0.1-0.1-0.4,0-0.6c0.1-0.3,0.1-1.2,0.1-1.5s0-0.7,0.2-0.8
			c0.1,0,1.4,0.1,1.8,0.3c0.4,0.2,0.6,0.3,0.6,0.8C233.4,19.8,233.5,20.2,233.2,20.5z M239.7,14.4c-0.3,0.1-4,0.5-5.1,0.6
			c-1.1,0-4.8,0.1-5.1,0.1s-0.5,0-0.7-0.1c-0.2-0.2-0.8-0.6-1.1-0.9c-0.3-0.3-0.8-0.8-0.6-0.9c0.1-0.1,3.2-0.1,3.9,0
			c0.8,0,2.7-0.1,3.6-0.2c0.9-0.1,0.9,0,1.7,0s4.8-0.5,5-0.4C241.5,12.6,240,14.2,239.7,14.4z"/>
	</g>
	<g>
		<path class="st1" d="M179.7,15.6c-0.1-0.1-0.2,0-0.3-0.1s-0.5-0.5-0.6-0.5s0,0.2,0,0.3s-0.2-0.1-0.3,0s-0.3,0.4-0.3,0.5
			s-0.2,0.1-0.2,0.3c0,0.2,0.2,0.5,0.2,0.6c0,0.2,0,1,0,1.5s0.3,2.1,0.4,2.5c0.1,0.4,0.1,1.3,0.4,1.6c0.3,0.3,1.2,1.1,1.6,1.1
			c0.4,0,0.9-0.1,1.1-0.3c0.2-0.1,0-0.4,0.1-0.4c0.1-0.1,0.7-0.4,0.7-0.6c0-0.1-0.3-0.5-0.3-0.7c0-0.1-0.2-1.6-0.2-1.8
			c0-0.2-0.2-0.6-0.2-0.7s0-0.5,0-0.8s-0.1-0.8-0.4-0.9c-0.2-0.1-0.4-0.6-0.6-0.8c-0.3-0.2-0.5-0.3-0.7-0.4
			C180,15.9,179.8,15.7,179.7,15.6z"/>
		<path class="st1" d="M192,24.8c0-0.1,0-0.2,0-0.3c0-0.1-0.1-0.3-0.1-0.4s0.1-0.2,0.1-0.2c0-0.1-0.1-0.5-0.1-0.5
			c0-0.1,0-0.8-0.1-1.1c-0.1-0.2-0.3-1.1-0.4-1.1c0-0.1-0.3-1.1-0.3-1.2s-0.2-0.8-0.3-0.9c0-0.1,0-0.8,0-0.9s-0.4-1.3-0.4-1.5
			c0-0.1,0.2-0.3,0.1-0.6c0-0.3-0.2-0.8-0.2-1c0-0.1,0-0.5,0.1-0.7c0.1-0.3,0.1-0.4,0.2-0.6c0.1-0.1,0.2-0.4,0.2-0.6
			c0-0.2,0-0.4,0-0.5c0,0,0.1-0.1,0.1-0.3s0-0.4,0.1-0.6c0.1-0.1,0.2-0.4,0.2-0.5s-0.1-0.6-0.1-0.7c0-0.1-0.1-0.2-0.1-0.4
			c0-0.1-0.1-0.4-0.1-0.5s0.1-0.1-0.2-0.4c-0.3-0.3-0.7-0.9-0.8-1s-0.6-0.6-0.8-0.8c-0.2-0.1-0.5-0.5-0.7-0.6s-0.8-0.9-1-1
			c-0.2-0.2-0.3-0.2-0.4-0.3c-0.1-0.1-0.2-0.1-0.4-0.1s-0.4,0.2-0.4,0.2s0.2,0.1,0.1,0.2c-0.1,0-0.2,0-0.2,0c-0.1,0.1,0,0.2-0.2,0.3
			c-0.1,0.1-0.2,0-0.3,0.1s-0.1,0.2-0.2,0.2c-0.1,0.1-0.2,0.1-0.3,0.3C185,7,184.6,8,184.6,8.2s0,0.3,0,0.3c0,0.1-0.1,0-0.2,0.4
			c-0.1,0.4-0.3,1.3-0.3,1.6c-0.1,0.3-0.3,1.9-0.3,2.4s0.1,0.6,0,0.7c0,0.1,0-0.1,0,0.2s0,1,0,1.6c0.1,0.5,0,1.3,0.1,1.4
			c0,0.1,0.1,1.9,0.3,2.3c0.1,0.4,0.1,1,0.2,1.2c0.1,0.3,0.2,0.6,0.2,0.7s0.1,1,0.1,1.2s-0.2,1.4-0.3,1.7c-0.1,0.3-0.5,0.8-0.7,1
			s-0.3,0.4-0.5,0.5s-0.5,0.3-0.6,0.4s-0.3,0-0.5,0.2c-0.2,0.1-0.3,0.1-0.5,0.2s-0.4,0.2-0.7,0.1c-0.3,0-0.5-0.2-0.8-0.2
			s-0.6-0.1-1.3-0.1s-1.1,0-1.4,0.1c-0.3,0.1-0.6,0.1-0.6,0c-0.1,0-0.1,0-0.2,0c-0.1,0.1-0.2,0.1-0.2,0.1s0,0-0.1,0
			s-0.1,0.1-0.2,0.1c-0.1,0-0.3,0-0.5,0c-0.2,0.1-0.2,0.2-0.3,0.2c-0.1,0.1-0.2,0.1-0.3,0.2s-0.2,0.2-0.2,0.3c0,0.1-0.1,0.3-0.2,0.5
			c0,0.1-0.3,0.7-0.2,1c0,0.2,0,0.4,0.1,0.5s0.2,0.2,0.3,0.3c0.1,0.1,0,0.2,0.2,0.2c0.1,0,0.2,0.1,0.5,0.1c0.2,0,0.5,0,0.6,0
			c0.1,0.1,0.2,0.1,0.3,0.1s0.3-0.1,0.4,0c0.1,0.1,0.6,0.6,0.8,0.6s0.5,0.1,0.6,0.2c0.1,0,0.1,0.2,0.2,0.2c0.1,0,0.2,0.1,0.3,0.1
			c0.1,0.1,0.4,0.1,0.5,0.1c0,0.1,0,0.3,0.1,0.3c0.1,0.1,0.2,0.2,0.3,0.3c0.1,0.1,0.2,0.3,0.3,0.4c0.1,0,0.3,0.3,0.5,0.3
			c0.1,0,0.3,0,0.3,0.1c0,0,0.2,0,0.3,0.1s0.2,0.2,0.4,0.2c0.2,0.1,0.3,0.2,0.4,0.2c0.2,0,0.3,0,0.3,0.1c0.1,0,0.2,0.1,0.6,0.2
			c0.3,0.1,0.4,0.1,0.5,0.2c0.1,0.1,0.1,0.1,0.2,0.1c0.2,0,0.4-0.1,0.4,0s0,0.1,0.2,0.1s0.2,0,0.3,0.1c0,0,0.4,0,0.6,0
			c0.2,0,0.4,0,0.6,0c0.2,0,0.4-0.1,0.6-0.1c0.1,0,0.1,0.1,0.3,0.1s0.2-0.2,0.3-0.3c0.1,0,0.4-0.1,0.5-0.1c0.1-0.1,0.3,0,0.4-0.1
			c0.2-0.1,0.2-0.2,0.5-0.2c0.2,0,0.5,0,0.5,0l0.2-0.1c0,0,0.2,0,0.3-0.2s0.5-0.5,0.7-0.5s0.3-0.1,0.4-0.2c0-0.1,0-0.2,0.1-0.3
			c0.1-0.1,0.2-0.1,0.2-0.1s0.1-0.1,0.1-0.2c0.1,0,0,0,0.2-0.2c0.1-0.2,0.4-0.7,0.4-0.7c0.1,0,0-0.2,0.1-0.2s0.1,0,0.1-0.1
			s0-0.4,0.1-0.4s0.2-0.1,0.3-0.2c0.1-0.2-0.1-0.4,0-0.5s0-0.3,0.1-0.3c0.1-0.1,0.1,0,0.2-0.1c0.1-0.1,0.1-0.4,0-0.4
			c0-0.1-0.1-0.2-0.1-0.3c0-0.1,0-0.2,0.1-0.3c0-0.1,0.2-0.2,0.2-0.3c0.1-0.1,0-0.2,0-0.2s0.1,0,0.1-0.1l-0.1-0.2c0,0,0-0.2,0.1-0.3
			c0.1-0.1,0-0.2,0-0.2c0-0.1,0.2-0.4,0.2-0.6C192.1,25.3,192,24.9,192,24.8z"/>
		<path class="st1" d="M172,26.4l-0.1-0.3v-1.6c1.5-0.2,3.2-0.2,3.5-0.2c0.4,0,0,0.8-0.1,1.1c-0.1,0.1-0.1,0.2-0.1,0.4
			c0,0.2,0.2,0.4,0.4,0.3c0.1,0,0.2-0.1,0.3-0.1c0.1-0.1,0.2-0.2,0.3-0.3c0.7-0.5,1.1-1.1,1.2-1.9c0-0.2,0.1-0.3,0.1-0.5
			c0-0.4,0-0.7-0.1-1.1c-0.2-0.5-0.6-1.1-0.9-1.5c-0.4-0.4-1-0.9-1-0.9c-0.5-0.3-0.5-0.3-1.2-0.5c-0.5-0.2-1.6-0.4-2.9-0.3
			c0-0.1,0-0.1,0-0.2c0-0.5,0.1-0.8,0.4-0.8c0.3,0,0.8,0.2,1,0.1s0.8-0.3,0.9-0.7c0.2-0.3,0.3-0.7,0.4-0.8c0.1,0-0.1-0.3-0.1-0.4
			s0-0.5,0-0.5c0.1,0,0.9-0.2,1.2-0.2s1,0,1.7-0.4s2.5-1.5,2.8-2.2s0.3-1,0.3-1.1c0-0.2,0.4-0.7,0.4-0.9c0.1-0.2,0-0.6,0.2-0.7
			c0.2-0.1,0.3-0.2,0.3-0.3s-0.2-0.2-0.3-0.2c-0.1-0.1-0.3-0.3-0.4-0.5c-0.1-0.1-0.3-0.1-0.3-0.2c0-0.1-0.3-0.7-0.4-0.8
			c-0.1-0.1,0-0.5-0.1-0.5s-0.3-0.2-0.4-0.2c-0.1,0-0.1-0.1-0.2-0.1c-0.1-0.1-0.7-0.4-1-0.5s-1.1-0.5-1.8-0.7s-1.3-0.4-3.5-0.4
			s-3.8,0.2-4.6,0.3c-0.9,0.1-3.7,0.4-4.9,0.5s-2.8,0.4-4,0.5c-1.2,0.2-4.5,0.6-4.7,0.7c0,0,0,0.2,0,0.3c0.1,0.1,0.2,0.6,0.3,0.7
			c0.1,0.1-0.1,0-0.2,0.1c-0.1,0.1-0.1,0.3,0.1,0.4c0.2,0.1,0.7,0.8,0.9,1.1c0.2,0.4,0.5,0.5,0.7,0.7c0.1,0.1,0,0.3,0.3,0.5
			c0.2,0.2,0.2,0.4,0.3,0.4s0.3-0.2,0.5-0.1c0.2,0.1,0.4,0.3,0.5,0.5s0.4,0.6,0.6,0.7c0.2,0.1,0.3,0.2,0.3,0.2
			c0,0.1,0.2,0.3,0.5,0.6c0.3,0.2,0.6,0.6,0.7,0.6c0.1,0,0.4,0.2,0.5,0.2c0.1,0.1,0.5,0.2,0.5,0.2c0,0.1,0.2,1.2,0.1,1.4
			c0,0.1,0,1.4,0,1.7c0,0.2,0,1.5,0,1.8s-0.6,2.2-0.7,2.4c-0.1,0.2-0.8,2.2-0.9,2.5c-0.1,0.3-0.9,2.3-0.8,3.6
			c0.1,1.3,0.2,2.4,0.4,2.5s0.4,0.1,0.5,0.1s0.1,0.4,0.2,0.4c0,0.1,0.1,0,0.1,0.1s0.5,0.8,0.8,0.8c0.4,0,0.3-0.2,0.4-0.2
			c0.1,0,0.1,0.2,0.4,0.2c0.3,0,0.6-0.1,0.6-0.1c0.1,0,0.2-0.3,0.3-0.3s0.7-0.1,0.7-0.1c0.1-0.1,0.6-1,0.7-1c0.1-0.1,0.2,0,0.2-0.1
			c0.1-0.1,0.8-1.4,0.8-1.4c0-0.1,0-0.2,0-0.3c0.1-0.1,0.4-0.3,0.4-0.4s0-0.4,0-0.4c0.1-0.1,0.3-0.4,0.3-0.5s0-0.5,0.1-0.5
			c0.1-0.1,0.2-0.8,0.3-1l0,0c0.1,0.1,0.2,0.3,0.3,0.3c0.8,0.6,0.1,0.2,1.1,0.5c0.2,0,0.6-0.1,0.9-0.3c0.1,0.6,0.2,1.6,0.2,1.7
			c0,0.2,0,0.6,0.1,0.9c0.1,0.2,0.2,0.6,0.3,0.8c0.1,0.2,0.2,0.9,0.2,1.1c0.1,0.2,0.2,0.4,0.3,0.5c0,0.1,0.1,0.3,0.2,0.4
			c0.1,0.1,0.3,0.2,0.4,0.2c0.1,0.1,0.1,0.3,0.3,0.4c0.2,0.1,0.4,0.2,0.5,0.2c0,0,0.2,0,0.3-0.1s0.6-0.6,0.7-0.6
			c0.1,0,0.2-0.1,0.2-0.2c0-0.1,0-0.8,0-1c0.1-0.1,0.3-0.2,0.3-0.3c0-0.1-0.2-2-0.2-2.2c0.1-0.1,0.1-0.6,0.1-0.7s-0.1-0.5-0.1-0.6
			C171.8,26.8,171.7,26.4,172,26.4z M161.8,11.7c-0.2-0.1-0.5-0.3-0.5-0.4c0-0.1,0.4,0,0.7,0c0.2,0,0.1,0,0.2-0.1
			c0.1-0.1,0.2,0,0.5,0c0.2,0,0.8-0.1,1.1-0.1c0.3-0.1,0.4-0.2,0.5-0.3c0.2-0.1,0.1,0.1,0.3,0.1s0,0,0.8,0s1.9-0.2,2.5-0.3
			s0.8,0,0.9,0.1c0.1,0.1-0.1,0.2-0.1,0.2c-0.1,0-0.3,0.1-0.6,0.4c-0.4,0.3-0.7,0.4-1.3,0.6c-0.5,0.2-1.4,0.8-1.5,0.9
			c-0.1,0.1-0.2,0.1-0.3,0.1s-0.1,0.1-0.2,0.3c-0.1,0.2-0.1,0.1-0.6,0.2c-0.5,0.1-0.9-0.5-1-0.6c-0.1-0.2-0.4-0.3-0.6-0.4
			C162.3,12.2,162,11.9,161.8,11.7z M166.2,20.3V20v-0.3c0-0.1,0.1-0.3,0.2-0.4c0.1-0.2,0-0.6-0.1-0.7c0-0.1-0.1-0.3-0.1-0.5
			s0.1-0.7,0.3-0.7s0.5,0.1,0.9,0.1s0.5-0.1,0.7,0s0.1,0.6,0.1,0.9c0,0.2,0,0.8-0.1,1c-0.2,0-0.3,0.1-0.5,0.2
			C167.2,19.8,166.7,20,166.2,20.3z"/>
	</g>
	<path class="st0" d="M110.3,26.3c0.6-0.1,0.9-0.1,1.3-0.2c0.9-0.3,1.6,0.1,2.2-0.3c0.1-0.1,0.2-0.2,0.4-0.2
		c0.6,0.2,0.8,0.4,1.5,0.7c0.5,0.2,0.8,0.7,1.3,1c0.1,0.1,0.3,0.1,0.3,0.2c0.1,0.1,0.1,0.3,0.1,0.4s-0.2,0.2-0.3,0.2
		c-0.4,0-0.7,0-1.1,0c-0.7,0-3.1-0.4-4.5-0.2c-1.1,0.2-1.8,0.1-2.5,0.5c-0.6,0.3-1.2,0.2-1.7-0.3c-0.1-0.1-0.3-0.2-0.4-0.3
		c-0.5-0.3-0.5-0.7-0.4-1.1c0.2-0.2,0.4-0.1,0.5,0c0.8,0.2,1.1,0,1.5-0.7c0.3-0.4,0.6-0.9,0.9-1.3c0.8-0.9,1-2.2,1-3.4
		c-1.2,0.1-2.4-0.2-3.5-1.1c-0.2-0.1-1.3,0.6-1.8,1.4c-0.3,0.5-0.6,1-0.4,1.6c0.1,0.4,0.3,0.7,0.4,1s0.2,0.5,0.1,0.8
		c-0.1,0.9-0.3,1.9-0.3,2.8c0,0.5-0.2,0.9-0.3,1.3c-0.1,0.5-0.4,0.6-0.9,0.4c-0.4-0.2-0.7-0.4-1.1-0.6c0,0,0,0-0.1-0.1
		c-0.3-0.3-0.5-1.5-0.2-1.9c0.4-0.6,0.4-1.3,0.6-2c0.1-0.2-0.2-0.7-0.3-0.7c-0.1,0-0.3,0.6-0.6,0.8c-0.3,0.2-0.2,0.7-0.4,0.8
		c-0.6,0.4-1.6,0.2-2,0c-0.4-0.3-0.8-0.7-0.8-1.1c-0.1-0.3,0.2-0.6,0.6-0.7c0.2-0.1,0.5-0.3,0.7-0.5c0.6-0.8,1.3-1.6,1.6-2.6
		c0.1-0.5,0.7-1.3,0.7-1.5s-0.4,0-0.5,0.2c-0.2,0.2-0.7,0.5-1.2,0.5c-1.1-0.1-1.9-0.6-1.9-0.9s1.7-0.6,2.3-1.2
		c0.2-0.2,0.6-0.4,0.9-0.5c0.5-0.3,1.3-0.8,1.6-0.8c0.3,0,0.9,0.6,1.5,0.7c0.2,0,0.5,0.3,0.7,0.4c0.4,0.4,0.3,0.9-0.2,1.1
		c-0.3,0.1-0.6,0.3-0.9,0.4c-0.4,0.2-0.4,0.4-0.5,1.1c0.5-0.1,0.9-0.4,1.3-0.6s1.4,0,1.7,0c0.3,0,0.7-0.1,1-0.2
		c0.7-0.1,1.3-0.5,1.9-0.9c0.1-0.1,0.2-0.3,0.2-0.5c0-0.7,0-1.1,0.1-1.7c0-0.6-0.3-0.7-0.4-0.9c-0.2-0.4-0.6-1.1-0.7-1.3
		s0.6,0.2,0.8,0.2c0.2,0.1,0.5,0.1,0.7,0.1c0.1,0,0.2,0.1,0.2,0.2c0.2,0.2,0.3,0.4,0.5,0.5c0.5,0.2,0.8,0.7,0.8,1.1
		c-0.1,0.4-0.4,1.3-0.5,1.6c-0.2,0.4,0.2,0.4,1,0.4c0.8-0.1,1.3,0.4,1.7,0.6c0.4,0.1,0.5,0.4,0.4,0.9c-0.4,0.4-1.1,0.3-1.6,0.6
		c-0.5,0.2-1.1,0.1-1.7,0.4c-0.1,0.4-0.2,0.8-0.1,1.2c0.2,1-0.3,2.2-0.6,3.1C110.9,25.7,110.4,25.8,110.3,26.3z"/>
	<path class="st0" d="M105,15.3c-0.6,0-1,0-1.3-0.1c-0.4,0.2-0.5,0.8-1.1,0.7c-0.2-0.3,0-0.4,0.2-0.6c0.3-0.4,0.6-1.1,0.4-1.5
		c-0.1-0.2-0.5-0.3-0.5-0.6c-0.2-0.3-1.2-0.8-0.9-0.9c0.3-0.1,0.5,0,0.6,0c0.2,0,0.3,0,0.5,0c0.4,0.1,1,0,1.5,0.1c0.5,0,0.7,0,0.9,0
		c0.6,0,1,0.4,1.3,1c0.4,0.9,0.4,1.1,0.2,1.3c-0.2,0.2-0.7,0.3-0.9,0.3C105.5,15.2,105.5,15.3,105,15.3z"/>
	<path class="st0" d="M67.1,22.7c-0.2,0.3-0.1,1.1,0,1.3c0.1,0.1,1.1-0.6,1.6-0.9s1.2-0.7,1.6-1.1c-0.2-0.3-0.2-0.6-0.6-1.1
		c-0.3-0.6-0.7-1.5-1.3-2.2c-0.3-0.1-0.5,0-0.8,0.1c-0.4,0.1-0.7,0.3-1.1,0.4c-0.2,0.1-0.4,0.1-0.6,0.1c-0.7-0.1-1.3-0.1-1.9,0
		c-0.2,0-0.9-0.3-0.9-0.4s1.6-0.6,2.6-1c1.1-0.4,1.8-0.7,2.1-0.8c0-0.3-0.3-1.9-0.4-2.3c0-0.1-0.1-0.3-0.3-0.4
		c-0.5-0.5-0.7-1.9-0.6-2.1s0.1-0.2,0.2-0.2s0.3,0,0.4,0c0.1,0.1,0.6,0.6,1,0.7c0.4,0.2,0.9,0.5,1.2,0.8c0.4,0.5,0.5,1.1,0.7,1.7
		c0,0.2,0.1,0.4,0.1,0.7c0.4-0.1,0.7-0.2,1.1-0.2c0.9-0.2,2,0.4,2.2,0.7c0.2,0.4-0.5,1-1,1.3s-1.2,0.3-1.7,0.3
		c0,0.2,0.1,0.5,0.3,1.1c0.4,1.1,0.7,1.6,1.1,2.7c0.3,0.8,1,1.4,1.7,2c0.2,0.2,0.5,0.4,0.7,0.5c0.4-0.9,0.2-2.6,0.5-2.8
		c0.2-0.1,0.3-0.2,0.4,0.1c0,0.2,0.1,0.6,0.2,0.7c0.7,0.9,0.8,2.1,1.2,3c0.2,0.5,0.5,0.9,0.6,1.4s0.3,1.1,0.1,1.3
		c-0.2,0.2-1.4,0.4-2,0c-0.2-0.2-0.5-0.2-0.8-0.4c-0.5-0.2-0.9-0.5-1.2-0.9c-0.6-0.7-1.2-1.4-1.8-2.2c0,0-0.1-0.1-0.1-0.2
		c-0.2-0.2-0.9-1.3-1-1.6c-0.7,0.4-1.8,1.2-3,2.5s-1.7,2.3-2.5,2.6c-0.8,0.3-1.5-0.1-1.6-0.9c0-0.5-0.2-0.7-0.5-1
		c-0.1-0.1-0.3-0.2-0.4-0.4c0-0.2,0.8-0.8,1.4-0.8c0.6,0,1.2-0.3,1.5-0.7c0.2-0.4,0.5-0.6,0.6-1.3c-0.2,0-0.4,0.2-0.6,0.3
		c-0.4,0.2-0.7,0.2-1.1-0.1c-0.3-0.2-0.7-0.4-1.1-0.7C63.2,22.2,63,22.1,63,22c0.1-0.1,0.5-0.2,0.7-0.3c0.2-0.1,0.4-0.3,0.6-0.4
		c0.5-0.3,1-0.5,1.5-0.7c0.1-0.1,0.3-0.1,0.5-0.2c0.8-0.6,1.4-0.1,2.1,0.2c0.2,0.1,0.5,0.5,0.2,0.8C68.3,21.9,67.2,22.4,67.1,22.7z"
		/>
	<path class="st0" d="M72,12.6c0.1,0,0.4,0.1,0.8,0.2c0.4,0.1,0.7,0.2,1.2,0.5c0.6,0.3,0.7,0.4,1,0.5c0.6,0.2,0.8,0.5,0.8,1.1
		c0,0.2,0.1,0.9,0,1.2c-0.2,0.3-0.3,0.6-0.7,0.6c-0.4,0-0.9-0.4-1-0.7c-0.1-0.4-0.2-0.5-0.3-0.8c-0.1-0.5-0.3-0.9-0.6-1.2
		c-0.4-0.3-0.7-0.6-1.1-0.9C71.9,13,71.9,12.6,72,12.6z"/>
	<g>
		<path class="st0" d="M31.4,4.4c-2.9,0-5.2,2.3-5.2,5.2s2.3,5.2,5.2,5.2s5.2-2.3,5.2-5.2S34.3,4.4,31.4,4.4z"/>
		<path class="st0" d="M32.5,29.7h-27V7H25c1-2.5,3.5-4.2,6.3-4.2c0.9,0,1.7,0.2,2.4,0.4c-0.4-1-1.4-1.7-1.4-1.7H5.1
			C4.6,0.6,3.7,0,2.8,0C1.2,0,0,1.4,0,3.2v28.6C0,32.1,0,33,0,33c0,1.2,1.1,2.2,2.3,2.2h30.2c1.2,0,2.2-1,2.2-2.2v-1.1
			C34.8,30.7,33.8,29.7,32.5,29.7z"/>
		<path class="st0" d="M27.8,15.4c-1.9-1.2-3.1-3.2-3.2-5.5H13.8H8.2v5.5v1.3v5.5V27h5.5v-4.8h5v4.9h5.5v-4.9h7.1v-5.5H13.8v-1.3
			C13.8,15.4,27.8,15.4,27.8,15.4z"/>
	</g>
	<g>
		<path class="st0" d="M86.6,19.8c-0.5-0.2-0.9-0.4-1-0.9c0.5-0.1,1-0.3,1.4-0.4c0.6-0.2,1.3-0.4,1.8-0.8c0.3-0.2,0.6-0.2,0.9,0
			c0.4,0.2,0.8,0.4,1.1,0.6c0.1,0.1,0.2,0.2,0.3,0.3c-0.2,0.5-0.6,0.7-1,0.9c-0.6,0.2-1.8,0.6-2.2,0.7c-0.1,0-0.6,0.2-0.9,0.1
			C86.9,20,86.7,19.8,86.6,19.8z"/>
		<path class="st0" d="M86.5,11.7c0,0,0.2-0.1,0.2,0c0.1,0.1,0.9,0.6,1.3,1c0.2,0.3,0.5,0.5,0.7,0.8c0.3,0.4,0.8,0.7,1.3,0.9
			c1.1,0.6,2.2,1.2,3.2,1.8c0.5,0.3,1,0.7,1.6,1c0.7,0.5,1.3,1.1,1.8,1.8c0.4,0.5,0.5,1.3,0.4,1.5c-0.2,0.2-0.6,0.2-1.1,0.1
			c-0.5,0-0.7-0.2-1.1-0.3c-0.4-0.1-0.9-0.3-1-0.5s0-0.7-0.1-1c-0.2-0.3-0.4-0.6-0.8-0.9c-0.6-0.4-1.1-0.8-1.7-1.2
			c-0.8-0.5-1.6-1-2.3-1.7c-0.2-0.2-0.5-0.5-0.7-0.5c-0.2,0.1-0.5,0.7-0.8,1c-0.1,0.1-0.2,0.3-0.4,0.4c-0.1,0-0.2,0.1-0.3,0.2
			c-0.4,0.8-0.9,1.6-1.5,2.2s-0.9,0.9-1.2,1.1c-0.3,0.3-2.1,1.5-2.9,1.8c-0.2,0-1.6,0.6-1.9,0.6s-0.5-0.4-0.2-0.5s1-0.3,1.6-0.8
			c1.2-0.9,3.1-3.1,4.1-4.5c0.4-0.6,0.8-1.3,1.3-1.9c0.4-0.8,0.4-1,0.7-1.7C86.6,12.3,86.5,11.8,86.5,11.7z"/>
		<path class="st0" d="M93.8,26.5c-0.2-0.4-0.7-1-1.3-1.3c-0.4-0.2-0.3-0.1-0.8-0.4s-0.8-0.4-1.3-0.4c-0.3,0-0.9,0-1,0.1
			c0,0.1-0.1,0.5,0.2,0.6l0.1,0.1h-0.1c-0.9,0.5-2.2,0.5-3.2,0.5c0.1-0.2,0.1-0.3,0.2-0.4c0.3-0.4,0.6-0.7,1-1.1
			c0.1-0.1,0.5-0.4,0.7-0.5c1.1-0.6,1.9-1.1,3.2-1c0.2,0,0.4,0,0.6-0.1c0.4-0.1,0.5-0.5,0.2-0.8c-0.5-0.6-1.1-0.8-1.8-1.2
			c-0.1,0-0.1-0.1-0.2,0c-0.5,0.2-1.1,0-1.4,0.5c-0.1,0.1-0.3,0.1-0.4,0.1c-0.2,0-1.2,0.3-2.1,0.5c-0.5,0.1-0.8,0.2-1.4,0.3
			c-0.8,0.2-1.9,0.2-2,0.2s-0.2,0.5-0.1,0.6s0.4,0.1,0.5,0.2c0.2,0.1,0.2,0.3,0.4,0.4c0.7,0.5,1.3,0.8,2.2,0.4
			c0.2-0.1,0.8-0.3,0.8-0.1c0,0.1-0.4,0.4-0.5,0.5c-0.8,0.7-1.9,1.1-3,1.2c-0.4,0-0.6,0.3-0.3,0.7c0.2,0.3,0.4,0.6,0.6,1
			s0.2,0.3,0.4,0.4c0.2,0.2,0.2,0.3,0.6,0.4c0.3,0.2,0.8,0.2,1,0.2c0.8,0,1.7-0.4,2.3-0.6c0.4-0.2,1.1-0.4,1.5-0.6
			c0.3-0.1,0.5-0.3,0.7-0.5c0.3-0.2,0.7-0.4,1-0.5c0.3,0.3,0.4,0.6,0.5,1c0,0.3-0.1,0.3,0.1,0.7c0.2,0.4,0.9,0.8,1.6,0.8
			s0.6-0.4,0.8-0.7C94.3,27.7,94.1,26.9,93.8,26.5z"/>
	</g>
	<path class="st0" d="M59.9,25.6c-0.3,0.2-1.5,0.2-2.2,0.1c-0.4-0.1-0.8-0.1-1.2-0.1c-0.5,0-1.2-0.1-1.3-0.1s-0.3-0.1-0.4-0.3
		c0-0.2,1.2-0.4,1.3-0.6s-1.5-1.3-1.6-1.3s-0.2,0.1-0.2,0.2c0,0.6-0.1,1.3,0,1.9c0,0.4,0.1,0.9,0.2,2c0.1,1,0,1.3-0.1,1.6
		c-0.2,0.3-0.7,0.8-0.8,0.9c-0.2,0.1-0.8-0.2-1.1-0.3c-0.2-0.1-0.4-0.3-0.5-0.5c-0.1-0.1-0.1-0.3-0.2-0.5c-0.1-0.5,0-0.9-0.3-1.4
		c-0.2-0.4-0.4-1.5-0.3-1.5c0.1,0,0.4,0.5,0.7,0.6c0.2,0,1-2.5,0.8-2.7c-0.1-0.2-0.5,0.2-0.8,0.3c-0.5,0.3-0.9,0.6-1.5,0.7
		c-0.4,0.1-0.9,0.3-1.2,0.6c-0.5,0.3-0.9,0.3-1.4,0.1c-0.2-0.1-0.4-0.2-0.5-0.1c-0.1,0,0.1,0.5,0,0.8c-0.1,0.2-0.1,0.5-0.1,0.8
		c0,0.2,0,0.4,0,0.6c-0.2,0.6-0.3,1.1-0.5,1.7c-0.1,0.3-0.2,0.6-0.7,0.4s-0.7-0.8-0.8-1.3s0.1-0.7,0.1-1.2c0-0.3,0.2-0.5,0.1-0.9
		c0-0.1,0-0.3,0.1-0.4c0.3-0.7,0.3-2.2,0.2-2.2c-0.2,0-0.8,0.4-0.8,0.9c0,0.1,0,0.1,0,0.2c-0.6,0.6-0.9,1.4-1.7,1.8
		c-0.5,0.2-0.7,0.2-0.9-0.3c-0.2-0.4-0.3-0.8-0.4-1.2c-0.1-0.5,0-1,0.4-1.2c0.4-0.3,0.7-0.8,1.1-1.1c0.3-0.4,0.7-0.8,1-1.2
		c0.3-0.4,0.5-0.8,0.8-1.3c-0.4,0.1-0.6,0.1-0.9,0.1c-0.7,0.2-1.3,0.1-1.9-0.5c-0.2-0.2-0.7-0.6-0.6-0.8c0.1-0.2,0.4-0.2,0.7-0.2
		c0.8,0,2.4-0.4,2.6-0.5c0.1,0,0-0.7,0-1.2C45,16.2,45,15.4,45,14.6c0-0.5-0.2-0.9-0.1-1.4c0-0.1-0.3-0.3-0.3-0.4
		c0-0.1,0.2-0.1,0.3-0.1c0.3,0,0.7-0.2,1-0.1c0.3,0.1,0.5,0.5,0.7,0.7s0.3,0.4,0.6,0.5c0.3,0.2,0.5,0.6,0.6,1c0.1,0.3,0,0.6-0.2,0.9
		c-0.3,0.4-0.5,0.8-0.7,1.6c0.3-0.3,0.5-0.3,1-0.3s0.5,0.1,0.8,0.3c0.1,0.1,0.3,0.2,0.4,0.3c0.5-0.5,0.6-0.7,1.1-1.6
		c0.3-0.5,0.5-0.8,0.1-1.3c-0.1-0.1-0.1-0.3,0-0.5s0.7-0.1,1,0.2s0.9,0.4,1.2,0.7c0.1-0.5,0.1-1-0.3-1.6c-0.3-0.6-0.8-1.4-0.5-1.5
		c0.2-0.1,0.3-0.4,0.8-0.3c0.5,0.1,1.6,0.9,2,1.2c0.3,0.3,0.3,0.7,0.2,1.1c-0.1,0.4-0.2,0.8-0.3,1.5c0,0.4,1.3,0.3,1.8,0.6
		c0.3,0.1,0.7,0.6,0.1,1c-0.6,0.4-1.7,0.6-1.9,0.8c-0.2,0.2-0.1,1.3,0,1.4s0.7-0.2,1-0.2c0.4,0,0.7,0,1.1,0.1c1.2,0.1,2.2,1.5,2,1.9
		s-1.3-0.2-2-0.1c-0.6,0.1-1.9,0.1-2,0.2s-0.1,0.4-0.1,0.7c0,0.3,0.1,0.3,0.4,0.3c0.2,0,0.4,0.1,0.6,0.1c1.3,0.1,2.3,0.7,3.3,1.4
		c0.1,0.1,0.2,0.1,0.3,0.2C60.1,24.1,60.3,25.4,59.9,25.6z M48.2,20.8c0.4,0.3,0.5,0.5,0.7,0.7c0.1,0.2,0.3,0.6,0.3,0.8
		c0,0.2,0.2,1.1-0.4,1c-0.4-0.1-0.9-0.5-1.7-1.4c0,0.7,0,0.7,0,1.2s0.1,1.5,0.3,1.5s1.5-0.5,2.5-1.1c1.3-0.8,1.6-1.6,1.7-1.7
		c0.1-0.1,0.2-0.4-0.5-0.2c-0.6,0.2-1.4,0.3-1.9,0c-0.2-0.2-0.5-0.7-0.7-0.9c0-0.2-0.5-0.7-0.4-0.8c0.1,0,1.5,0.5,2.3,0.3
		c0.8-0.1,2.3-0.5,2.4-0.6c0.1-0.1,0.1-0.6,0-0.9c0-0.4-0.1-0.4-0.2-0.5c-0.6,0-0.8-0.5-1.2-0.2c-0.2,0.2-0.4,0.3-0.8,0.6
		c-0.5,0.3-0.9,0.5-1.5,0.5c-0.8,0-1.6,0-2.3,0.3c0.1,0.4,0.1,0.7,0.2,1.2C47.4,20.6,48,20.6,48.2,20.8z M52.5,16.6
		c0.3-0.1,0.2-0.5,0.2-0.6c0-0.2,0-0.4-0.1-0.4c-0.1,0.1-0.2,0.2-0.4,0.5C52.1,16.3,51.7,16.9,52.5,16.6z"/>
</g>
</svg>
